<?xml version="1.0" encoding="UTF-8" standalone="no"?>
<!-- Created with Inkscape (http://www.inkscape.org/) -->

<svg
   xmlns:dc="http://purl.org/dc/elements/1.1/"
   xmlns:cc="http://creativecommons.org/ns#"
   xmlns:rdf="http://www.w3.org/1999/02/22-rdf-syntax-ns#"
   xmlns:svg="http://www.w3.org/2000/svg"
   xmlns="http://www.w3.org/2000/svg"
   xmlns:sodipodi="http://sodipodi.sourceforge.net/DTD/sodipodi-0.dtd"
   xmlns:inkscape="http://www.inkscape.org/namespaces/inkscape"
   width="38.099998mm"
   height="38.100071mm"
   viewBox="0 0 134.99999 135.00025"
   id="svg2"
   version="1.1"
   inkscape:version="0.91 r13725"
   sodipodi:docname="objects.svg">
  <defs
     id="defs4">
    <clipPath
       id="clipPath3369"
       clipPathUnits="userSpaceOnUse">
      <path
         inkscape:connector-curvature="0"
         id="path3371"
         d="m 0,136.346 136.346,0 L 136.346,0 0,0 0,136.346 Z" />
    </clipPath>
    <clipPath
       id="clipPath3381"
       clipPathUnits="userSpaceOnUse">
      <path
         inkscape:connector-curvature="0"
         id="path3383"
         d="m 14.173,68.173 c 0,-29.823 24.177,-54 54,-54 l 0,0 c 29.824,0 54,24.177 54,54 l 0,0 c 0,29.824 -24.176,54 -54,54 l 0,0 c -29.823,0 -54,-24.176 -54,-54" />
    </clipPath>
  </defs>
  <sodipodi:namedview
     id="base"
     pagecolor="#ffffff"
     bordercolor="#666666"
     borderopacity="1.0"
     inkscape:pageopacity="0.0"
     inkscape:pageshadow="2"
     inkscape:zoom="0.98994949"
     inkscape:cx="-629.13568"
     inkscape:cy="-219.91541"
     inkscape:document-units="px"
     inkscape:current-layer="layer1"
     showgrid="false"
     fit-margin-top="0"
     fit-margin-left="0"
     fit-margin-right="0"
     fit-margin-bottom="0"
     inkscape:window-width="2560"
     inkscape:window-height="1413"
     inkscape:window-x="0"
     inkscape:window-y="27"
     inkscape:window-maximized="1" />
  <metadata
     id="metadata7">
    <rdf:RDF>
      <cc:Work
         rdf:about="">
        <dc:format>image/svg+xml</dc:format>
        <dc:type
           rdf:resource="http://purl.org/dc/dcmitype/StillImage" />
        <dc:title></dc:title>
      </cc:Work>
    </rdf:RDF>
  </metadata>
  <g
     inkscape:label="Layer 1"
     inkscape:groupmode="layer"
     id="layer1"
     transform="translate(-1083.9286,-1010.5764)">
    <g
       transform="matrix(1.25,0,0,-1.25,1066.2121,1163.2929)"
       inkscape:label="Objects Logo"
       id="g3363">
      <g
         id="g3365">
        <g
           clip-path="url(#clipPath3369)"
           id="g3367">
          <g
             transform="translate(122.1732,68.1732)"
             id="g3373">
            <path
               inkscape:connector-curvature="0"
               id="path3375"
               style="fill:#399d41;fill-opacity:1;fill-rule:nonzero;stroke:none"
               d="m 0,0 c 0,-29.823 -24.177,-54 -54,-54 -29.823,0 -54,24.177 -54,54 0,29.823 24.177,54 54,54 C -24.177,54 0,29.823 0,0" />
          </g>
        </g>
      </g>
      <g
         id="g3377">
        <g
           clip-path="url(#clipPath3381)"
           id="g3379">
          <g
             transform="translate(68.1732,98.2404)"
             id="g3385">
            <path
               inkscape:connector-curvature="0"
               id="path3387"
               style="fill:#ffffff;fill-opacity:1;fill-rule:nonzero;stroke:none"
               d="m 0,0 c 0,-5.368 -4.352,-9.72 -9.72,-9.72 -5.368,0 -9.72,4.352 -9.72,9.72 0,5.368 4.352,9.72 9.72,9.72 C -4.352,9.72 0,5.368 0,0" />
          </g>
          <g
             transform="translate(112.8186,76.9729)"
             id="g3389">
            <path
               inkscape:connector-curvature="0"
               id="path3391"
               style="fill:#ffffff;fill-opacity:1;fill-rule:nonzero;stroke:none"
               d="m 0,0 c 0,-5.368 -4.352,-9.72 -9.72,-9.72 -5.368,0 -9.72,4.352 -9.72,9.72 0,5.368 4.352,9.72 9.72,9.72 C -4.352,9.72 0,5.368 0,0" />
          </g>
          <g
             transform="translate(84.3732,54.2081)"
             id="g3393">
            <path
               inkscape:connector-curvature="0"
               id="path3395"
               style="fill:#ffffff;fill-opacity:1;fill-rule:nonzero;stroke:none"
               d="m 0,0 c 0,-8.947 -7.253,-16.2 -16.2,-16.2 -8.947,0 -16.2,7.253 -16.2,16.2 0,8.947 7.253,16.2 16.2,16.2 C -7.253,16.2 0,8.947 0,0" />
          </g>
          <g
             transform="translate(108.0407,23.31)"
             id="g3397">
            <path
               inkscape:connector-curvature="0"
               id="path3399"
               style="fill:#ffffff;fill-opacity:1;fill-rule:nonzero;stroke:none"
               d="m 0,0 c 0,-5.368 -4.352,-9.72 -9.72,-9.72 -5.368,0 -9.72,4.352 -9.72,9.72 0,5.368 4.352,9.72 9.72,9.72 C -4.352,9.72 0,5.368 0,0" />
          </g>
          <g
             transform="translate(40.6779,68.1732)"
             id="g3401">
            <path
               inkscape:connector-curvature="0"
               id="path3403"
               style="fill:#ffffff;fill-opacity:1;fill-rule:nonzero;stroke:none"
               d="m 0,0 c 0,-5.368 -4.352,-9.72 -9.72,-9.72 -5.368,0 -9.72,4.352 -9.72,9.72 0,5.368 4.352,9.72 9.72,9.72 C -4.352,9.72 0,5.368 0,0" />
          </g>
          <g
             transform="translate(98.4624,118.1547)"
             id="g3405">
            <path
               inkscape:connector-curvature="0"
               id="path3407"
               style="fill:#ffffff;fill-opacity:1;fill-rule:nonzero;stroke:none"
               d="m 0,0 c 0,-5.368 -4.352,-9.72 -9.72,-9.72 -5.368,0 -9.72,4.352 -9.72,9.72 0,5.368 4.352,9.72 9.72,9.72 C -4.352,9.72 0,5.368 0,0" />
          </g>
          <g
             transform="translate(68.5458,50.8125)"
             id="g3409">
            <path
               inkscape:connector-curvature="0"
               id="path3411"
               style="fill:#ffffff;fill-opacity:1;fill-rule:nonzero;stroke:none"
               d="m 0,0 -38.659,14.507 2.142,5.708 L -0.746,6.791 30.882,27.406 17.322,65.897 23.071,67.923 38.224,24.915 0,0 Z" />
          </g>
          <g
             transform="translate(96.1385,21.1815)"
             id="g3413">
            <path
               inkscape:connector-curvature="0"
               id="path3415"
               style="fill:#ffffff;fill-opacity:1;fill-rule:nonzero;stroke:none"
               d="m 0,0 -30.755,31.52 -9.907,44.882 5.953,1.314 9.533,-43.183 L 4.364,4.256 0,0 Z" />
          </g>
        </g>
      </g>
    </g>
  </g>
</svg>
