<?xml version="1.0" encoding="utf-8"?>
<!-- Generator: Adobe Illustrator 19.2.1, SVG Export Plug-In . SVG Version: 6.00 Build 0)  -->
<svg version="1.1" id="Layer_1" xmlns="http://www.w3.org/2000/svg" xmlns:xlink="http://www.w3.org/1999/xlink" x="0px" y="0px"
	 viewBox="0 0 134.5 30.5" style="enable-background:new 0 0 134.5 30.5;" xml:space="preserve">
<style type="text/css">
	.st0{fill:#F26523;}
	.st1{fill:#FFFFFF;}
</style>
<g>
	<g>
		<path class="st0" d="M4.3,11.5c0.1,1.3,1,1.7,1.7,1.7c0.9,0,1.8-0.6,1.8-1.6c0-1.3-0.9-1.6-2.5-2.2c-1-0.4-3.1-1-3.1-3.7
			c0-2,1.6-3.7,3.8-3.7c1.5,0,3.7,1,3.8,3.7H7.5C7.4,4.6,6.7,4.3,6,4.3c-0.7,0-1.3,0.5-1.3,1.3c0,1.1,0.8,1.4,2.1,1.8
			c1.1,0.3,3.4,1.2,3.4,4c0,2.8-2.2,4.1-4.2,4.1c-1.7,0-4-1.1-4.2-3.9H4.3z"/>
		<polygon class="st0" points="11.8,2.4 15.1,2.4 18.5,12.1 18.5,12.1 21.9,2.4 25.2,2.4 25.2,15.2 22.8,15.2 22.8,5.6 22.8,5.6 
			22.8,5.6 19.5,15.2 17.5,15.2 14.2,5.6 14.1,5.6 14.1,15.2 11.8,15.2 		"/>
		<path class="st0" d="M31.8,2.4h1.9L39,15.2h-2.6L35,11.9h-4.6l-1.4,3.3h-2.6L31.8,2.4z M31.2,9.7h3l-1.5-3.9h0L31.2,9.7z"/>
		<path class="st0" d="M40.3,2.4h3.9c1.5,0,2.4,0.3,3.1,0.9c0.7,0.6,1.5,1.6,1.5,3.1c0,0.9-0.3,2.2-1.2,3.1
			c-0.8,0.7-1.5,0.9-2.1,1.1l3.5,4.7h-2.9l-3.4-4.9h0v4.9h-2.4V2.4z M42.7,8.5h1.5c2,0,2.3-1.3,2.3-2c0-0.7-0.4-1.9-2.3-1.9h-1.5
			V8.5z"/>
		<polygon class="st0" points="52.4,4.6 50,4.6 50,2.4 57.2,2.4 57.2,4.6 54.8,4.6 54.8,15.2 52.4,15.2 		"/>
	</g>
	<g>
		<path class="st1" d="M70.5,11.7c-0.9,2.3-3.4,3.8-5.9,3.8c-1.8,0-3.3-0.6-4.6-1.8c-1.4-1.3-2.2-3.1-2.2-4.9c0-3.7,3-6.7,6.6-6.7
			c1.7,0,3.1,0.5,4.4,1.6C69.7,4.4,70.1,5,70.5,6h-2.7c-0.5-0.6-0.9-0.9-1.5-1.1c-0.6-0.3-1.4-0.4-1.9-0.4c-2.3,0-4.3,2-4.3,4.3
			c0,2.4,2.1,4.4,4.5,4.3c1.2-0.1,2-0.5,3-1.5H70.5z"/>
		<path class="st1" d="M84.5,8.8c0,3.7-3,6.7-6.7,6.7c-3.7,0-6.7-3-6.7-6.7c0-3.7,3-6.7,6.7-6.7C81.5,2.1,84.5,5.1,84.5,8.8z
			 M73.4,8.8c0,2.4,2,4.3,4.3,4.3s4.3-2,4.3-4.3c0-2.4-2-4.3-4.3-4.3S73.4,6.4,73.4,8.8z"/>
		<path class="st1" d="M87.9,11.6c0,0.9,0.6,1.5,1.6,1.6c1.1,0.1,1.8-0.7,1.7-1.7c-0.1-0.8-0.5-1.3-1.7-1.7
			c-1.3-0.5-1.5-0.6-1.9-0.8c-1.1-0.6-1.8-1.8-1.8-3.2c0-1.8,1.6-3.5,3.6-3.6c1.1-0.1,2.4,0.5,3.1,1.5c0.5,0.7,0.7,1.3,0.8,2.2h-2.5
			c-0.1-0.8-0.6-1.3-1.4-1.3c-0.7,0-1.2,0.5-1.2,1.1c0,0.5,0.1,0.9,0.5,1.2c0.3,0.2,0.6,0.4,1.6,0.7c1.1,0.4,1.6,0.7,2.1,1.2
			c0.7,0.7,1.1,1.6,1.1,2.6c0,1.2-0.3,2.1-1.1,3c-0.8,0.8-1.8,1.2-2.9,1.2c-1.3,0-2.6-0.7-3.4-1.7c-0.5-0.7-0.7-1.3-0.8-2.3H87.9z"
			/>
		<path class="st1" d="M95.3,15.3V2.4h3.3l2.5,7.3c0.4,1.1,0.5,1.4,0.8,2.5h0.1c0.3-1.1,0.4-1.3,0.8-2.5l2.6-7.3h3.3v12.9h-2.3V8.8
			c0-1.7,0-2.2,0.2-3.8l-0.1,0c-0.4,1.6-0.6,2.1-1.1,3.7l-2.3,6.6h-2l-2.3-6.6C98.1,7.1,98,6.6,97.6,5l-0.1,0
			c0.1,1.7,0.2,2.1,0.2,3.8v6.4H95.3z"/>
		<path class="st1" d="M124,8.8c0,3.7-3,6.7-6.7,6.7c-3.7,0-6.7-3-6.7-6.7c0-3.7,3-6.7,6.7-6.7C121,2.1,124,5.1,124,8.8z M113,8.8
			c0,2.4,2,4.3,4.3,4.3c2.4,0,4.3-2,4.3-4.3c0-2.4-2-4.3-4.3-4.3C114.9,4.5,113,6.4,113,8.8z"/>
		<path class="st1" d="M127.5,11.6c0,0.9,0.6,1.5,1.6,1.6c1.1,0.1,1.8-0.7,1.7-1.7c-0.1-0.8-0.5-1.3-1.7-1.7
			c-1.3-0.5-1.5-0.6-1.9-0.8c-1.1-0.6-1.8-1.8-1.8-3.2c0-1.8,1.6-3.5,3.6-3.6c1.1-0.1,2.4,0.5,3.1,1.5c0.5,0.7,0.7,1.3,0.8,2.2h-2.5
			c-0.1-0.8-0.6-1.3-1.4-1.3c-0.7,0-1.2,0.5-1.2,1.1c0,0.5,0.1,0.9,0.5,1.2c0.3,0.2,0.6,0.4,1.6,0.7c1.1,0.4,1.6,0.7,2.1,1.2
			c0.7,0.7,1.1,1.6,1.1,2.6c0,1.2-0.3,2.1-1.1,3c-0.8,0.8-1.8,1.2-2.9,1.2c-1.3,0-2.6-0.7-3.4-1.7c-0.5-0.7-0.7-1.3-0.8-2.3H127.5z"
			/>
	</g>
</g>
<g>
	<path class="st1" d="M2.5,21.4v0.4c0,0.2,0,0.3-0.1,0.5l0,0c0.3-0.6,1-1,1.8-1c1.3,0,2.3,1.1,2.3,2.4S5.5,26,4.2,26
		c-0.7,0-1.4-0.3-1.7-1l0,0c0,0.5,0.1,0.7,0.1,1.3v1.2H1.9v-6.1H2.5z M2.4,23.6c0,0.6,0.2,1,0.5,1.3c0.3,0.3,0.8,0.5,1.2,0.5
		c1,0,1.7-0.8,1.7-1.7c0-1-0.8-1.8-1.7-1.8C3.2,21.8,2.4,22.6,2.4,23.6z"/>
	<path class="st1" d="M12.4,23.6c0,1.2-1.1,2.3-2.3,2.3c-1.3,0-2.3-1-2.3-2.3c0-1.3,1-2.4,2.3-2.4C11.4,21.3,12.4,22.4,12.4,23.6z
		 M8.5,23.6c0,1,0.8,1.7,1.7,1.7c0.9,0,1.7-0.8,1.7-1.7c0-0.5-0.1-0.9-0.5-1.3c-0.3-0.3-0.8-0.5-1.2-0.5C9.2,21.8,8.5,22.6,8.5,23.6
		z"/>
	<path class="st1" d="M13.2,21.4h0.6l1,2.7c0.2,0.5,0.2,0.6,0.4,1.1h0c0.1-0.5,0.2-0.6,0.3-1.2l0.7-2.1h0.5l0.7,2.1
		c0.2,0.5,0.2,0.7,0.3,1.1h0c0.1-0.5,0.2-0.6,0.4-1.1l1-2.7h0.6l-1.7,4.5h-0.7L16.9,24c-0.2-0.6-0.2-0.7-0.3-1.2h0
		c-0.1,0.5-0.2,0.7-0.3,1.2l-0.6,1.8h-0.7L13.2,21.4z"/>
	<path class="st1" d="M21.4,23.8c-0.1,0-0.1,0-0.2,0c0,0.9,0.8,1.6,1.7,1.6c0.6,0,1.3-0.4,1.5-1h0.6c-0.3,0.9-1.2,1.6-2.2,1.6
		c-1.3,0-2.3-1-2.3-2.3c0-1.3,1-2.3,2.3-2.3c0.8,0,1.6,0.5,2,1.2c0.2,0.4,0.3,0.7,0.3,1.3H21.4z M24.2,23.3c0.2,0,0.2,0,0.4,0
		c-0.1-0.5-0.3-0.7-0.5-1c-0.3-0.3-0.8-0.5-1.2-0.5c-0.9,0-1.6,0.6-1.7,1.5c0.2,0,0.2,0,0.4,0H24.2z"/>
	<path class="st1" d="M26.7,21.4h0.6v0.3c0,0.1,0,0.2-0.1,0.4l0,0c0.2-0.6,0.6-0.8,1.3-0.9v0.6c-0.4,0-0.6,0.1-0.8,0.3
		c-0.3,0.3-0.5,0.6-0.5,1.1v2.6h-0.6V21.4z"/>
	<path class="st1" d="M30.2,23.8c-0.1,0-0.1,0-0.2,0c0,0.9,0.8,1.6,1.7,1.6c0.6,0,1.3-0.4,1.5-1h0.6c-0.3,0.9-1.2,1.6-2.2,1.6
		c-1.3,0-2.3-1-2.3-2.3c0-1.3,1-2.3,2.3-2.3c0.8,0,1.6,0.5,2,1.2c0.2,0.4,0.3,0.7,0.3,1.3H30.2z M33,23.3c0.2,0,0.2,0,0.4,0
		c-0.1-0.5-0.3-0.7-0.5-1c-0.3-0.3-0.8-0.5-1.2-0.5c-0.9,0-1.6,0.6-1.7,1.5c0.2,0,0.2,0,0.4,0H33z"/>
	<path class="st1" d="M39.9,25.9h-0.6v-0.4c0-0.2,0-0.3,0-0.5l0,0c-0.3,0.4-0.4,0.5-0.7,0.7C38.4,25.9,38,26,37.6,26
		c-1.3,0-2.3-1-2.3-2.3c0-1.3,1-2.3,2.3-2.3c0.7,0,1.3,0.3,1.8,0.9l0,0c0-0.5-0.1-0.6-0.1-1.1v-1.2h0.6V25.9z M35.9,23.6
		c0,1,0.8,1.8,1.7,1.8c1,0,1.8-0.8,1.8-1.8c0-1-0.8-1.8-1.8-1.8C36.6,21.8,35.9,22.6,35.9,23.6z"/>
	<path class="st1" d="M44.5,19.8h0.6V21c0,0.6,0,0.7-0.1,1.2l0,0c0.4-0.6,1-1,1.7-1c1.3,0,2.3,1,2.3,2.3s-1,2.4-2.3,2.4
		c-0.8,0-1.5-0.4-1.8-1l0,0c0,0.2,0.1,0.3,0.1,0.5v0.4h-0.6V19.8z M45.6,22.3c-0.4,0.3-0.5,0.8-0.5,1.3c0,1,0.8,1.8,1.8,1.8
		c1,0,1.7-0.8,1.7-1.8c0-1-0.8-1.7-1.7-1.7C46.4,21.8,45.9,22,45.6,22.3z"/>
	<path class="st1" d="M51.7,25.7l-1.7-4.3h0.7l1,2.6c0.2,0.5,0.2,0.6,0.4,1h0c0.1-0.4,0.2-0.5,0.4-1l1.1-2.6h0.7l-2.6,6.1H51
		L51.7,25.7z"/>
	<path class="st1" d="M59.4,23.8c0,0.5,0.4,0.9,0.9,0.9c0.6,0,1-0.4,1-1c0-0.5-0.3-0.7-1-1c-0.7-0.3-0.8-0.3-1.1-0.5
		c-0.6-0.3-1-1-1-1.8c0-1,0.9-2,2-2c0.6,0,1.3,0.3,1.8,0.8c0.3,0.4,0.4,0.7,0.4,1.2h-1.4c0-0.4-0.3-0.7-0.8-0.7
		c-0.4,0-0.7,0.3-0.7,0.6c0,0.3,0.1,0.5,0.3,0.7c0.2,0.1,0.3,0.2,0.9,0.4c0.6,0.2,0.9,0.4,1.2,0.7c0.4,0.4,0.6,0.9,0.6,1.5
		c0,0.7-0.2,1.2-0.6,1.7c-0.4,0.5-1,0.7-1.6,0.7c-0.7,0-1.5-0.4-1.9-0.9c-0.3-0.4-0.4-0.7-0.4-1.3H59.4z"/>
	<path class="st1" d="M64.4,25.9v-7.3h1.9l1.4,4.1c0.2,0.6,0.3,0.8,0.4,1.4h0c0.2-0.6,0.2-0.8,0.4-1.4l1.5-4.1h1.9v7.3h-1.3v-3.6
		c0-1,0-1.2,0.1-2.2l-0.1,0c-0.2,0.9-0.3,1.2-0.6,2.1l-1.3,3.7h-1.1l-1.3-3.7c-0.3-0.9-0.4-1.2-0.6-2.1l-0.1,0
		c0.1,0.9,0.1,1.2,0.1,2.2v3.6H64.4z"/>
	<path class="st1" d="M76.5,18.6h1.1l3.1,7.3h-1.5L78.3,24h-2.6l-0.8,1.9h-1.5L76.5,18.6z M76.4,22.1c-0.1,0.3-0.1,0.3-0.2,0.6
		c0.3,0,0.3,0,0.6,0h0.4c0.3,0,0.3,0,0.6,0c-0.1-0.2-0.1-0.3-0.2-0.6l-0.2-0.6c-0.2-0.6-0.2-0.7-0.4-1.2h0c-0.1,0.5-0.2,0.7-0.4,1.2
		L76.4,22.1z"/>
	<path class="st1" d="M82.1,18.6h2.1c0.9,0,1.5,0.2,1.9,0.6c0.5,0.5,0.7,1.1,0.7,1.8c0,0.6-0.3,1.3-0.8,1.7
		c-0.3,0.3-0.6,0.4-1.1,0.5c0.2,0.2,0.2,0.2,0.4,0.5l1.6,2.2h-1.6l-1-1.5c-0.4-0.6-0.5-0.8-0.9-1.4l0,0c0.1,0.6,0.1,0.8,0.1,1.5v1.4
		h-1.4V18.6z M83.5,21.8c0,0.1,0,0.1,0,0.2c0.1,0,0.1,0,0.2,0h0.5c0.8,0,1.3-0.4,1.3-1.1c0-0.6-0.5-1.1-1.3-1.1h-0.5
		c-0.1,0-0.1,0-0.2,0c0,0.1,0,0.1,0,0.2V21.8z"/>
	<path class="st1" d="M89,20.1c0-0.1,0-0.1,0-0.2c-0.1,0-0.1,0-0.2,0h-0.9v-1.3h3.6v1.3h-0.9c-0.1,0-0.1,0-0.2,0c0,0.1,0,0.1,0,0.2
		v5.8H89V20.1z"/>
	<path class="st1" d="M93,18.6h2.1c0.9,0,1.5,0.2,1.9,0.6c0.5,0.5,0.7,1.1,0.7,1.8c0,0.6-0.3,1.3-0.8,1.7c-0.3,0.3-0.6,0.4-1.1,0.5
		c0.2,0.2,0.2,0.2,0.4,0.5l1.6,2.2h-1.6l-1-1.5c-0.4-0.6-0.5-0.8-0.9-1.4l0,0c0.1,0.6,0.1,0.8,0.1,1.5v1.4H93V18.6z M94.4,21.8
		c0,0.1,0,0.1,0,0.2c0.1,0,0.1,0,0.2,0h0.5c0.8,0,1.3-0.4,1.3-1.1c0-0.6-0.5-1.1-1.3-1.1h-0.5c-0.1,0-0.1,0-0.2,0c0,0.1,0,0.1,0,0.2
		V21.8z"/>
	<path class="st1" d="M102,18.6h1.1l3.1,7.3h-1.5l-0.8-1.9h-2.6l-0.8,1.9h-1.5L102,18.6z M101.9,22.1c-0.1,0.3-0.1,0.3-0.2,0.6
		c0.3,0,0.3,0,0.6,0h0.4c0.3,0,0.3,0,0.6,0c-0.1-0.2-0.1-0.3-0.2-0.6l-0.2-0.6c-0.2-0.6-0.2-0.7-0.4-1.2h0c-0.1,0.5-0.2,0.7-0.4,1.2
		L101.9,22.1z"/>
	<path class="st1" d="M113.8,23.8c-0.5,1.3-1.9,2.2-3.3,2.2c-1,0-1.9-0.3-2.6-1c-0.8-0.7-1.2-1.8-1.2-2.8c0-2.1,1.7-3.8,3.8-3.8
		c0.9,0,1.8,0.3,2.5,0.9c0.5,0.4,0.7,0.7,1,1.3h-1.5c-0.3-0.3-0.5-0.5-0.8-0.6s-0.8-0.2-1.1-0.2c-1.3,0-2.4,1.1-2.4,2.5
		c0,1.4,1.2,2.5,2.6,2.5c0.7,0,1.1-0.3,1.7-0.8H113.8z"/>
</g>
</svg>
